<svg width="24" height="24" viewBox="0 0 24 24" fill="none" xmlns="http://www.w3.org/2000/svg">
<path d="M10 17C10 17.3956 9.8827 17.7822 9.66294 18.1111C9.44318 18.44 9.13082 18.6964 8.76537 18.8478C8.39992 18.9991 7.99778 19.0387 7.60982 18.9616C7.22186 18.8844 6.86549 18.6939 6.58579 18.4142C6.30608 18.1345 6.1156 17.7781 6.03843 17.3902C5.96126 17.0022 6.00087 16.6001 6.15224 16.2346C6.30362 15.8692 6.55996 15.5568 6.88886 15.3371C7.21776 15.1173 7.60444 15 8 15C8.53043 15 9.03914 15.2107 9.41421 15.5858C9.78929 15.9609 10 16.4696 10 17ZM18 15C17.6044 15 17.2178 15.1173 16.8889 15.3371C16.56 15.5568 16.3036 15.8692 16.1522 16.2346C16.0009 16.6001 15.9613 17.0022 16.0384 17.3902C16.1156 17.7781 16.3061 18.1345 16.5858 18.4142C16.8655 18.6939 17.2219 18.8844 17.6098 18.9616C17.9978 19.0387 18.3999 18.9991 18.7654 18.8478C19.1308 18.6964 19.4432 18.44 19.6629 18.1111C19.8827 17.7822 20 17.3956 20 17C20 16.4696 19.7893 15.9609 19.4142 15.5858C19.0391 15.2107 18.5304 15 18 15Z" stroke="#111111" stroke-width="2" stroke-linecap="round"/>
<path d="M14 17V6V5H4L2 5V7M14 17H10C10 16.4696 9.78929 15.9609 9.41421 15.5858C9.03914 15.2107 8.53043 15 8 15C7.46957 15 6.96086 15.2107 6.58579 15.5858C6.21071 15.9609 6 16.4696 6 17H4H2V12M14 17V8H18.46H19L22 11V17H20C20 16.4696 19.7893 15.9609 19.4142 15.5858C19.0391 15.2107 18.5304 15 18 15C17.4696 15 16.9609 15.2107 16.5858 15.5858C16.2107 15.9609 16 16.4696 16 17H14Z" stroke="#111111" stroke-width="2" stroke-linecap="square"/>
</svg>
