<svg width="24" height="24" viewBox="0 0 24 24" fill="none" xmlns="http://www.w3.org/2000/svg">
<path d="M21 5H3V5.99115V17.8849V19H21V17.8849V5.99115V5Z" stroke="#111111" stroke-width="2" stroke-linecap="round"/>
<path d="M13 15C13.5523 15 14 14.5523 14 14C14 13.4477 13.5523 13 13 13C12.4477 13 12 13.4477 12 14C12 14.5523 12.4477 15 13 15Z" stroke="#111111" stroke-width="2" stroke-linecap="round" stroke-linejoin="round"/>
<path d="M16 15C16.5523 15 17 14.5523 17 14C17 13.4477 16.5523 13 16 13C15.4477 13 15 13.4477 15 14C15 14.5523 15.4477 15 16 15Z" stroke="#111111" stroke-width="2" stroke-linecap="round" stroke-linejoin="round"/>
</svg>
