<svg width="24" height="24" viewBox="0 0 24 24" fill="none" xmlns="http://www.w3.org/2000/svg">
<path d="M20 15.25V19.25C20 19.5152 20 20.25 20 20.25C20 20.25 19.2652 20.25 19 20.25H4C3.73478 20.25 3 20.25 3 20.25C3 20.25 3 19.5152 3 19.25V7.25C3 6.98478 3 6.25 3 6.25C3 6.25 3.73478 6.25 4 6.25H19C19.2652 6.25 20 6.25 20 6.25C20 6.25 20 6.98478 20 7.25V11.25" stroke="#111111" stroke-width="2" stroke-linecap="square"/>
<path d="M21 11.25H16V12.25V14.25V15.25H21V14.25V12.25V11.25Z" stroke="#111111" stroke-width="2" stroke-linecap="square"/>
<path d="M6 6.24993L14.13 2.63993C14.3643 2.53509 14.63 2.52438 14.872 2.61001C15.114 2.69564 15.3138 2.87105 15.43 3.09993L17 6.24993" stroke="#111111" stroke-width="2" stroke-linecap="round"/>
</svg>
