<svg width="24" height="24" viewBox="0 0 24 24" fill="none" xmlns="http://www.w3.org/2000/svg">
<path d="M12.1297 2H11.875L11.6331 2.1028L7.92829 5.81638C7.76914 6.0284 7.82325 6.18902 8.08743 6.18902H9.72661C9.99397 6.18902 10.204 6.40104 10.204 6.66767V9.42395C10.204 9.69058 10.4173 9.9026 10.6815 9.9026H13.3774C13.6957 9.9026 13.9089 9.69058 13.9089 9.42395V6.66767C13.9089 6.40104 14.119 6.18902 14.3832 6.18902H15.9173C16.1815 6.18902 16.2356 6.0284 16.0764 5.81638L12.3748 2.1028L12.1297 2Z" fill="#ED1C24"/>
<path d="M18.2458 8.04625C18.1662 7.94024 18.0867 7.90169 18.0262 7.92096C17.9657 7.94024 17.9275 8.02055 17.9275 8.15226V15.7368C17.9275 15.8717 17.9657 15.9649 18.0262 15.997C18.0867 16.0292 18.1662 16.0035 18.2458 15.8974L21.8424 12.2899C22.0525 12.1325 22.0525 11.8112 21.8424 11.5992L18.2458 8.04625Z" fill="#ED1C24"/>
<path d="M6.07248 7.84027C6.13932 7.87239 6.1807 7.96555 6.1807 8.10048V15.8425C6.1807 15.9774 6.13932 16.0577 6.07248 16.0834C6.00883 16.1091 5.91652 16.0834 5.80831 16.0031L2.15755 12.2895C1.94748 12.1321 1.94748 11.8108 2.15755 11.5988L5.80831 7.93985C5.91652 7.83384 6.00883 7.80814 6.07248 7.84027Z" fill="#ED1C24"/>
<path d="M13.376 13.9339H10.6801C10.4159 13.9339 10.2027 14.1459 10.2027 14.4126V17.3295C10.2027 17.6475 9.99258 17.8595 9.72522 17.8595H8.19108C7.9269 17.8595 7.82187 18.0169 8.03512 18.1776L11.6318 21.8365C11.7368 21.9425 11.8705 21.9971 12.001 21.9971C12.1347 21.9971 12.2652 21.9425 12.3734 21.8365L15.97 18.1776C16.1801 18.0169 16.0751 17.8595 15.8109 17.8595H14.3818C14.1176 17.8595 13.9075 17.6475 13.9075 17.3295V14.4126C13.9075 14.1459 13.6943 13.9339 13.376 13.9339Z" fill="#ED1C24"/>
</svg>
